<mxfile host="Electron" agent="Mozilla/5.0 (Windows NT 10.0; Win64; x64) AppleWebKit/537.36 (KHTML, like Gecko) draw.io/26.2.2 Chrome/134.0.6998.178 Electron/35.1.2 Safari/537.36" version="26.2.2">
  <diagram name="Page-1" id="ptcdV4iPr8Qt-zj1wRM2">
    <mxGraphModel dx="923" dy="551" grid="1" gridSize="10" guides="1" tooltips="1" connect="1" arrows="1" fold="1" page="1" pageScale="1" pageWidth="850" pageHeight="1100" math="0" shadow="0">
      <root>
        <mxCell id="0" />
        <mxCell id="1" parent="0" />
        <mxCell id="5UxNmBTP3Ztt49pQKL5J-40" value="" style="endArrow=none;html=1;rounded=0;exitX=0.25;exitY=1;exitDx=0;exitDy=0;entryX=0.25;entryY=0;entryDx=0;entryDy=0;" parent="1" source="5UxNmBTP3Ztt49pQKL5J-38" target="5UxNmBTP3Ztt49pQKL5J-38" edge="1">
          <mxGeometry width="50" height="50" relative="1" as="geometry">
            <mxPoint x="360" y="160" as="sourcePoint" />
            <mxPoint x="410" y="110" as="targetPoint" />
          </mxGeometry>
        </mxCell>
        <mxCell id="5UxNmBTP3Ztt49pQKL5J-38" value="Users" style="swimlane;whiteSpace=wrap;html=1;strokeWidth=1;perimeterSpacing=0;swimlaneLine=1;rounded=0;" parent="1" vertex="1">
          <mxGeometry x="80" width="160" height="180" as="geometry" />
        </mxCell>
        <mxCell id="5UxNmBTP3Ztt49pQKL5J-42" value="UserId: UUID" style="text;html=1;align=center;verticalAlign=middle;resizable=0;points=[];autosize=1;strokeColor=none;fillColor=none;" parent="5UxNmBTP3Ztt49pQKL5J-38" vertex="1">
          <mxGeometry x="55" y="20" width="90" height="30" as="geometry" />
        </mxCell>
        <mxCell id="5UxNmBTP3Ztt49pQKL5J-43" value="PK" style="text;html=1;align=center;verticalAlign=middle;resizable=0;points=[];autosize=1;strokeColor=none;fillColor=none;" parent="5UxNmBTP3Ztt49pQKL5J-38" vertex="1">
          <mxGeometry y="20" width="40" height="30" as="geometry" />
        </mxCell>
        <mxCell id="5UxNmBTP3Ztt49pQKL5J-45" value="Username: text" style="text;html=1;align=center;verticalAlign=middle;resizable=0;points=[];autosize=1;strokeColor=none;fillColor=none;" parent="5UxNmBTP3Ztt49pQKL5J-38" vertex="1">
          <mxGeometry x="50" y="50" width="100" height="30" as="geometry" />
        </mxCell>
        <mxCell id="5UxNmBTP3Ztt49pQKL5J-46" value="Password: text" style="text;html=1;align=center;verticalAlign=middle;resizable=0;points=[];autosize=1;strokeColor=none;fillColor=none;" parent="5UxNmBTP3Ztt49pQKL5J-38" vertex="1">
          <mxGeometry x="50" y="70" width="100" height="30" as="geometry" />
        </mxCell>
        <mxCell id="5UxNmBTP3Ztt49pQKL5J-47" value="FirstName: text" style="text;html=1;align=center;verticalAlign=middle;resizable=0;points=[];autosize=1;strokeColor=none;fillColor=none;" parent="5UxNmBTP3Ztt49pQKL5J-38" vertex="1">
          <mxGeometry x="50" y="90" width="100" height="30" as="geometry" />
        </mxCell>
        <mxCell id="5UxNmBTP3Ztt49pQKL5J-48" value="LastName: text" style="text;html=1;align=center;verticalAlign=middle;resizable=0;points=[];autosize=1;strokeColor=none;fillColor=none;" parent="5UxNmBTP3Ztt49pQKL5J-38" vertex="1">
          <mxGeometry x="50" y="110" width="100" height="30" as="geometry" />
        </mxCell>
        <mxCell id="5UxNmBTP3Ztt49pQKL5J-44" value="" style="endArrow=none;html=1;rounded=0;" parent="5UxNmBTP3Ztt49pQKL5J-38" edge="1">
          <mxGeometry width="50" height="50" relative="1" as="geometry">
            <mxPoint y="49.6" as="sourcePoint" />
            <mxPoint x="160" y="49.6" as="targetPoint" />
          </mxGeometry>
        </mxCell>
        <mxCell id="MMdD6pfrjAhW9f9Fqrhg-101" value="Email: text" style="text;html=1;align=center;verticalAlign=middle;resizable=0;points=[];autosize=1;strokeColor=none;fillColor=none;" parent="5UxNmBTP3Ztt49pQKL5J-38" vertex="1">
          <mxGeometry x="60" y="128" width="80" height="30" as="geometry" />
        </mxCell>
        <mxCell id="MMdD6pfrjAhW9f9Fqrhg-102" value="Role: text" style="text;html=1;align=center;verticalAlign=middle;resizable=0;points=[];autosize=1;strokeColor=none;fillColor=none;" parent="5UxNmBTP3Ztt49pQKL5J-38" vertex="1">
          <mxGeometry x="65" y="148" width="70" height="30" as="geometry" />
        </mxCell>
        <mxCell id="5UxNmBTP3Ztt49pQKL5J-49" value="Addresses" style="swimlane;whiteSpace=wrap;html=1;strokeWidth=1;perimeterSpacing=0;swimlaneLine=1;rounded=0;fillColor=default;" parent="1" vertex="1">
          <mxGeometry x="370" y="40" width="160" height="160" as="geometry" />
        </mxCell>
        <mxCell id="5UxNmBTP3Ztt49pQKL5J-57" value="" style="endArrow=none;html=1;rounded=0;" parent="5UxNmBTP3Ztt49pQKL5J-49" edge="1">
          <mxGeometry width="50" height="50" relative="1" as="geometry">
            <mxPoint x="35" y="160" as="sourcePoint" />
            <mxPoint x="35" y="22.5" as="targetPoint" />
          </mxGeometry>
        </mxCell>
        <mxCell id="5UxNmBTP3Ztt49pQKL5J-56" value="" style="endArrow=none;html=1;rounded=0;" parent="5UxNmBTP3Ztt49pQKL5J-49" edge="1">
          <mxGeometry width="50" height="50" relative="1" as="geometry">
            <mxPoint y="49.519999999999996" as="sourcePoint" />
            <mxPoint x="160" y="49.519999999999996" as="targetPoint" />
          </mxGeometry>
        </mxCell>
        <mxCell id="ByeBDG1ME2pxpvsTMO9L-6" value="PK" style="text;html=1;align=center;verticalAlign=middle;whiteSpace=wrap;rounded=0;" parent="5UxNmBTP3Ztt49pQKL5J-49" vertex="1">
          <mxGeometry y="20" width="40" height="30" as="geometry" />
        </mxCell>
        <mxCell id="ByeBDG1ME2pxpvsTMO9L-7" value="AddressId: UUID" style="text;html=1;align=center;verticalAlign=middle;resizable=0;points=[];autosize=1;strokeColor=none;fillColor=none;" parent="5UxNmBTP3Ztt49pQKL5J-49" vertex="1">
          <mxGeometry x="40" y="20" width="110" height="30" as="geometry" />
        </mxCell>
        <mxCell id="ByeBDG1ME2pxpvsTMO9L-9" value="UserId: UUID" style="text;html=1;align=center;verticalAlign=middle;resizable=0;points=[];autosize=1;strokeColor=none;fillColor=none;" parent="5UxNmBTP3Ztt49pQKL5J-49" vertex="1">
          <mxGeometry x="50" y="50" width="90" height="30" as="geometry" />
        </mxCell>
        <mxCell id="ByeBDG1ME2pxpvsTMO9L-8" value="FK" style="text;html=1;align=center;verticalAlign=middle;resizable=0;points=[];autosize=1;strokeColor=none;fillColor=none;" parent="5UxNmBTP3Ztt49pQKL5J-49" vertex="1">
          <mxGeometry y="50" width="40" height="30" as="geometry" />
        </mxCell>
        <mxCell id="ByeBDG1ME2pxpvsTMO9L-10" value="Country: text" style="text;html=1;align=center;verticalAlign=middle;resizable=0;points=[];autosize=1;strokeColor=none;fillColor=none;" parent="5UxNmBTP3Ztt49pQKL5J-49" vertex="1">
          <mxGeometry x="50" y="68" width="90" height="30" as="geometry" />
        </mxCell>
        <mxCell id="ByeBDG1ME2pxpvsTMO9L-11" value="PostalCode: Integer&amp;nbsp;" style="text;html=1;align=center;verticalAlign=middle;resizable=0;points=[];autosize=1;strokeColor=none;fillColor=none;" parent="5UxNmBTP3Ztt49pQKL5J-49" vertex="1">
          <mxGeometry x="35" y="90" width="130" height="30" as="geometry" />
        </mxCell>
        <mxCell id="ByeBDG1ME2pxpvsTMO9L-13" value="Address: text" style="text;html=1;align=center;verticalAlign=middle;resizable=0;points=[];autosize=1;strokeColor=none;fillColor=none;" parent="5UxNmBTP3Ztt49pQKL5J-49" vertex="1">
          <mxGeometry x="50" y="110" width="90" height="30" as="geometry" />
        </mxCell>
        <mxCell id="MMdD6pfrjAhW9f9Fqrhg-103" value="isDefault: boolean" style="text;html=1;align=center;verticalAlign=middle;resizable=0;points=[];autosize=1;strokeColor=none;fillColor=none;" parent="5UxNmBTP3Ztt49pQKL5J-49" vertex="1">
          <mxGeometry x="35" y="130" width="120" height="30" as="geometry" />
        </mxCell>
        <mxCell id="ByeBDG1ME2pxpvsTMO9L-1" value="Transactions" style="swimlane;whiteSpace=wrap;html=1;strokeWidth=1;perimeterSpacing=0;swimlaneLine=1;rounded=0;fillColor=default;" parent="1" vertex="1">
          <mxGeometry x="355" y="290" width="190" height="140" as="geometry" />
        </mxCell>
        <mxCell id="ByeBDG1ME2pxpvsTMO9L-2" value="" style="endArrow=none;html=1;rounded=0;exitX=0.25;exitY=1;exitDx=0;exitDy=0;" parent="ByeBDG1ME2pxpvsTMO9L-1" edge="1">
          <mxGeometry width="50" height="50" relative="1" as="geometry">
            <mxPoint x="35" y="140" as="sourcePoint" />
            <mxPoint x="35" y="22.5" as="targetPoint" />
          </mxGeometry>
        </mxCell>
        <mxCell id="ByeBDG1ME2pxpvsTMO9L-3" value="" style="endArrow=none;html=1;rounded=0;" parent="ByeBDG1ME2pxpvsTMO9L-1" edge="1">
          <mxGeometry width="50" height="50" relative="1" as="geometry">
            <mxPoint y="49.519999999999996" as="sourcePoint" />
            <mxPoint x="190" y="50" as="targetPoint" />
          </mxGeometry>
        </mxCell>
        <mxCell id="MMdD6pfrjAhW9f9Fqrhg-2" value="PK" style="text;html=1;align=center;verticalAlign=middle;resizable=0;points=[];autosize=1;strokeColor=none;fillColor=none;" parent="ByeBDG1ME2pxpvsTMO9L-1" vertex="1">
          <mxGeometry y="20" width="40" height="30" as="geometry" />
        </mxCell>
        <mxCell id="MMdD6pfrjAhW9f9Fqrhg-3" value="TransactionId: UUID" style="text;html=1;align=center;verticalAlign=middle;resizable=0;points=[];autosize=1;strokeColor=none;fillColor=none;" parent="ByeBDG1ME2pxpvsTMO9L-1" vertex="1">
          <mxGeometry x="45" y="20" width="130" height="30" as="geometry" />
        </mxCell>
        <mxCell id="MMdD6pfrjAhW9f9Fqrhg-6" value="Amount: NUMERIC(10,2)" style="text;html=1;align=center;verticalAlign=middle;resizable=0;points=[];autosize=1;strokeColor=none;fillColor=none;" parent="ByeBDG1ME2pxpvsTMO9L-1" vertex="1">
          <mxGeometry x="40" y="50" width="160" height="30" as="geometry" />
        </mxCell>
        <mxCell id="MMdD6pfrjAhW9f9Fqrhg-11" value="Quantity: NUMERIC" style="text;html=1;align=center;verticalAlign=middle;resizable=0;points=[];autosize=1;strokeColor=none;fillColor=none;" parent="ByeBDG1ME2pxpvsTMO9L-1" vertex="1">
          <mxGeometry x="45" y="90" width="130" height="30" as="geometry" />
        </mxCell>
        <mxCell id="MMdD6pfrjAhW9f9Fqrhg-10" value="ItemId: UUID" style="text;html=1;align=center;verticalAlign=middle;resizable=0;points=[];autosize=1;strokeColor=none;fillColor=none;" parent="ByeBDG1ME2pxpvsTMO9L-1" vertex="1">
          <mxGeometry x="65" y="70" width="90" height="30" as="geometry" />
        </mxCell>
        <mxCell id="MMdD6pfrjAhW9f9Fqrhg-9" value="FK" style="text;html=1;align=center;verticalAlign=middle;resizable=0;points=[];autosize=1;strokeColor=none;fillColor=none;" parent="ByeBDG1ME2pxpvsTMO9L-1" vertex="1">
          <mxGeometry y="70" width="40" height="30" as="geometry" />
        </mxCell>
        <mxCell id="MMdD6pfrjAhW9f9Fqrhg-12" value="OrderId: UUID" style="text;html=1;align=center;verticalAlign=middle;resizable=0;points=[];autosize=1;strokeColor=none;fillColor=none;" parent="ByeBDG1ME2pxpvsTMO9L-1" vertex="1">
          <mxGeometry x="60" y="110" width="100" height="30" as="geometry" />
        </mxCell>
        <mxCell id="MMdD6pfrjAhW9f9Fqrhg-13" value="FK" style="text;html=1;align=center;verticalAlign=middle;resizable=0;points=[];autosize=1;strokeColor=none;fillColor=none;" parent="ByeBDG1ME2pxpvsTMO9L-1" vertex="1">
          <mxGeometry y="110" width="40" height="30" as="geometry" />
        </mxCell>
        <mxCell id="MMdD6pfrjAhW9f9Fqrhg-1" style="rounded=0;orthogonalLoop=1;jettySize=auto;html=1;endArrow=ERoneToMany;endFill=0;startArrow=ERoneToMany;startFill=0;" parent="1" edge="1">
          <mxGeometry relative="1" as="geometry">
            <mxPoint x="240" y="110" as="sourcePoint" />
            <mxPoint x="370" y="110" as="targetPoint" />
          </mxGeometry>
        </mxCell>
        <mxCell id="MMdD6pfrjAhW9f9Fqrhg-8" style="edgeStyle=orthogonalEdgeStyle;rounded=0;orthogonalLoop=1;jettySize=auto;html=1;endArrow=ERzeroToMany;endFill=0;entryX=0.5;entryY=0;entryDx=0;entryDy=0;" parent="1" source="5UxNmBTP3Ztt49pQKL5J-38" target="MMdD6pfrjAhW9f9Fqrhg-28" edge="1">
          <mxGeometry relative="1" as="geometry">
            <mxPoint x="160" y="250" as="targetPoint" />
          </mxGeometry>
        </mxCell>
        <mxCell id="MMdD6pfrjAhW9f9Fqrhg-40" style="edgeStyle=orthogonalEdgeStyle;rounded=0;orthogonalLoop=1;jettySize=auto;html=1;entryX=0;entryY=0.5;entryDx=0;entryDy=0;endArrow=ERoneToMany;endFill=0;" parent="1" source="MMdD6pfrjAhW9f9Fqrhg-28" target="ByeBDG1ME2pxpvsTMO9L-1" edge="1">
          <mxGeometry relative="1" as="geometry">
            <mxPoint x="350" y="360" as="targetPoint" />
          </mxGeometry>
        </mxCell>
        <mxCell id="MMdD6pfrjAhW9f9Fqrhg-99" style="edgeStyle=orthogonalEdgeStyle;rounded=0;orthogonalLoop=1;jettySize=auto;html=1;entryX=0.5;entryY=0;entryDx=0;entryDy=0;exitX=0.75;exitY=0;exitDx=0;exitDy=0;endArrow=ERoneToMany;endFill=0;" parent="1" source="MMdD6pfrjAhW9f9Fqrhg-28" target="MMdD6pfrjAhW9f9Fqrhg-87" edge="1">
          <mxGeometry relative="1" as="geometry">
            <mxPoint x="250" y="230" as="sourcePoint" />
            <mxPoint x="720" y="160.0000000000001" as="targetPoint" />
          </mxGeometry>
        </mxCell>
        <mxCell id="MMdD6pfrjAhW9f9Fqrhg-28" value="Orders" style="swimlane;whiteSpace=wrap;html=1;strokeWidth=1;perimeterSpacing=0;swimlaneLine=1;rounded=0;fillColor=default;" parent="1" vertex="1">
          <mxGeometry x="77.5" y="290" width="170" height="160" as="geometry" />
        </mxCell>
        <mxCell id="MMdD6pfrjAhW9f9Fqrhg-29" value="" style="endArrow=none;html=1;rounded=0;" parent="MMdD6pfrjAhW9f9Fqrhg-28" edge="1">
          <mxGeometry width="50" height="50" relative="1" as="geometry">
            <mxPoint x="35.5" y="160" as="sourcePoint" />
            <mxPoint x="35" y="22.5" as="targetPoint" />
          </mxGeometry>
        </mxCell>
        <mxCell id="MMdD6pfrjAhW9f9Fqrhg-30" value="" style="endArrow=none;html=1;rounded=0;" parent="MMdD6pfrjAhW9f9Fqrhg-28" edge="1">
          <mxGeometry width="50" height="50" relative="1" as="geometry">
            <mxPoint y="49.519999999999996" as="sourcePoint" />
            <mxPoint x="170" y="50" as="targetPoint" />
          </mxGeometry>
        </mxCell>
        <mxCell id="MMdD6pfrjAhW9f9Fqrhg-31" value="PK" style="text;html=1;align=center;verticalAlign=middle;whiteSpace=wrap;rounded=0;" parent="MMdD6pfrjAhW9f9Fqrhg-28" vertex="1">
          <mxGeometry y="20" width="40" height="30" as="geometry" />
        </mxCell>
        <mxCell id="MMdD6pfrjAhW9f9Fqrhg-32" value="OrderId: UUID" style="text;html=1;align=center;verticalAlign=middle;resizable=0;points=[];autosize=1;strokeColor=none;fillColor=none;" parent="MMdD6pfrjAhW9f9Fqrhg-28" vertex="1">
          <mxGeometry x="45" y="20" width="100" height="30" as="geometry" />
        </mxCell>
        <mxCell id="MMdD6pfrjAhW9f9Fqrhg-33" value="UserId: UUID" style="text;html=1;align=center;verticalAlign=middle;resizable=0;points=[];autosize=1;strokeColor=none;fillColor=none;" parent="MMdD6pfrjAhW9f9Fqrhg-28" vertex="1">
          <mxGeometry x="50" y="50" width="90" height="30" as="geometry" />
        </mxCell>
        <mxCell id="MMdD6pfrjAhW9f9Fqrhg-34" value="FK" style="text;html=1;align=center;verticalAlign=middle;resizable=0;points=[];autosize=1;strokeColor=none;fillColor=none;" parent="MMdD6pfrjAhW9f9Fqrhg-28" vertex="1">
          <mxGeometry y="50" width="40" height="30" as="geometry" />
        </mxCell>
        <mxCell id="MMdD6pfrjAhW9f9Fqrhg-37" value="Date: TIMESTAMPTZ" style="text;html=1;align=center;verticalAlign=middle;resizable=0;points=[];autosize=1;strokeColor=none;fillColor=none;" parent="MMdD6pfrjAhW9f9Fqrhg-28" vertex="1">
          <mxGeometry x="30" y="70" width="140" height="30" as="geometry" />
        </mxCell>
        <mxCell id="MMdD6pfrjAhW9f9Fqrhg-95" value="OrderStatus: TEXT" style="text;html=1;align=center;verticalAlign=middle;resizable=0;points=[];autosize=1;strokeColor=none;fillColor=none;" parent="MMdD6pfrjAhW9f9Fqrhg-28" vertex="1">
          <mxGeometry x="30" y="88" width="130" height="30" as="geometry" />
        </mxCell>
        <mxCell id="MMdD6pfrjAhW9f9Fqrhg-104" value="PaymentMethod: text" style="text;html=1;align=center;verticalAlign=middle;resizable=0;points=[];autosize=1;strokeColor=none;fillColor=none;" parent="MMdD6pfrjAhW9f9Fqrhg-28" vertex="1">
          <mxGeometry x="30" y="108" width="140" height="30" as="geometry" />
        </mxCell>
        <mxCell id="MMdD6pfrjAhW9f9Fqrhg-105" value="PaymentStatus: text" style="text;html=1;align=center;verticalAlign=middle;resizable=0;points=[];autosize=1;strokeColor=none;fillColor=none;" parent="MMdD6pfrjAhW9f9Fqrhg-28" vertex="1">
          <mxGeometry x="35" y="130" width="130" height="30" as="geometry" />
        </mxCell>
        <mxCell id="MMdD6pfrjAhW9f9Fqrhg-41" value="Items" style="swimlane;whiteSpace=wrap;html=1;strokeWidth=1;perimeterSpacing=0;swimlaneLine=1;rounded=0;fillColor=default;" parent="1" vertex="1">
          <mxGeometry x="370" y="470" width="190" height="190" as="geometry" />
        </mxCell>
        <mxCell id="MMdD6pfrjAhW9f9Fqrhg-42" value="" style="endArrow=none;html=1;rounded=0;" parent="MMdD6pfrjAhW9f9Fqrhg-41" edge="1">
          <mxGeometry width="50" height="50" relative="1" as="geometry">
            <mxPoint x="35" y="190" as="sourcePoint" />
            <mxPoint x="35" y="22.5" as="targetPoint" />
          </mxGeometry>
        </mxCell>
        <mxCell id="MMdD6pfrjAhW9f9Fqrhg-43" value="" style="endArrow=none;html=1;rounded=0;" parent="MMdD6pfrjAhW9f9Fqrhg-41" edge="1">
          <mxGeometry width="50" height="50" relative="1" as="geometry">
            <mxPoint y="49.519999999999996" as="sourcePoint" />
            <mxPoint x="190" y="50" as="targetPoint" />
          </mxGeometry>
        </mxCell>
        <mxCell id="MMdD6pfrjAhW9f9Fqrhg-44" value="PK" style="text;html=1;align=center;verticalAlign=middle;resizable=0;points=[];autosize=1;strokeColor=none;fillColor=none;" parent="MMdD6pfrjAhW9f9Fqrhg-41" vertex="1">
          <mxGeometry y="20" width="40" height="30" as="geometry" />
        </mxCell>
        <mxCell id="MMdD6pfrjAhW9f9Fqrhg-45" value="ItemId: UUID" style="text;html=1;align=center;verticalAlign=middle;resizable=0;points=[];autosize=1;strokeColor=none;fillColor=none;" parent="MMdD6pfrjAhW9f9Fqrhg-41" vertex="1">
          <mxGeometry x="65" y="20" width="90" height="30" as="geometry" />
        </mxCell>
        <mxCell id="MMdD6pfrjAhW9f9Fqrhg-46" value="Price: NUMERIC(10,2)" style="text;html=1;align=center;verticalAlign=middle;resizable=0;points=[];autosize=1;strokeColor=none;fillColor=none;" parent="MMdD6pfrjAhW9f9Fqrhg-41" vertex="1">
          <mxGeometry x="45" y="50" width="140" height="30" as="geometry" />
        </mxCell>
        <mxCell id="MMdD6pfrjAhW9f9Fqrhg-47" value="Description: String" style="text;html=1;align=center;verticalAlign=middle;resizable=0;points=[];autosize=1;strokeColor=none;fillColor=none;" parent="MMdD6pfrjAhW9f9Fqrhg-41" vertex="1">
          <mxGeometry x="50" y="90" width="120" height="30" as="geometry" />
        </mxCell>
        <mxCell id="MMdD6pfrjAhW9f9Fqrhg-48" value="Name: String" style="text;html=1;align=center;verticalAlign=middle;resizable=0;points=[];autosize=1;strokeColor=none;fillColor=none;" parent="MMdD6pfrjAhW9f9Fqrhg-41" vertex="1">
          <mxGeometry x="65" y="70" width="90" height="30" as="geometry" />
        </mxCell>
        <mxCell id="MMdD6pfrjAhW9f9Fqrhg-51" value="FK" style="text;html=1;align=center;verticalAlign=middle;resizable=0;points=[];autosize=1;strokeColor=none;fillColor=none;" parent="MMdD6pfrjAhW9f9Fqrhg-41" vertex="1">
          <mxGeometry y="130" width="40" height="30" as="geometry" />
        </mxCell>
        <mxCell id="MMdD6pfrjAhW9f9Fqrhg-52" value="ImageURL: TEXT" style="text;html=1;align=center;verticalAlign=middle;resizable=0;points=[];autosize=1;strokeColor=none;fillColor=none;" parent="MMdD6pfrjAhW9f9Fqrhg-41" vertex="1">
          <mxGeometry x="50" y="110" width="120" height="30" as="geometry" />
        </mxCell>
        <mxCell id="MMdD6pfrjAhW9f9Fqrhg-50" value="VendorId: UUID" style="text;html=1;align=center;verticalAlign=middle;resizable=0;points=[];autosize=1;strokeColor=none;fillColor=none;" parent="MMdD6pfrjAhW9f9Fqrhg-41" vertex="1">
          <mxGeometry x="50" y="130" width="110" height="30" as="geometry" />
        </mxCell>
        <mxCell id="MMdD6pfrjAhW9f9Fqrhg-65" value="AmtInStock: Integer" style="text;html=1;align=center;verticalAlign=middle;resizable=0;points=[];autosize=1;strokeColor=none;fillColor=none;" parent="MMdD6pfrjAhW9f9Fqrhg-41" vertex="1">
          <mxGeometry x="45" y="150" width="130" height="30" as="geometry" />
        </mxCell>
        <mxCell id="MMdD6pfrjAhW9f9Fqrhg-53" style="rounded=0;orthogonalLoop=1;jettySize=auto;html=1;endArrow=ERone;endFill=0;" parent="1" source="MMdD6pfrjAhW9f9Fqrhg-12" target="MMdD6pfrjAhW9f9Fqrhg-41" edge="1">
          <mxGeometry relative="1" as="geometry" />
        </mxCell>
        <mxCell id="MMdD6pfrjAhW9f9Fqrhg-54" value="Vendor" style="swimlane;whiteSpace=wrap;html=1;strokeWidth=1;perimeterSpacing=0;swimlaneLine=1;rounded=0;fillColor=default;" parent="1" vertex="1">
          <mxGeometry x="30" y="510" width="190" height="140" as="geometry" />
        </mxCell>
        <mxCell id="MMdD6pfrjAhW9f9Fqrhg-55" value="" style="endArrow=none;html=1;rounded=0;exitX=0.25;exitY=1;exitDx=0;exitDy=0;" parent="MMdD6pfrjAhW9f9Fqrhg-54" edge="1">
          <mxGeometry width="50" height="50" relative="1" as="geometry">
            <mxPoint x="35" y="140" as="sourcePoint" />
            <mxPoint x="35" y="22.5" as="targetPoint" />
          </mxGeometry>
        </mxCell>
        <mxCell id="MMdD6pfrjAhW9f9Fqrhg-56" value="" style="endArrow=none;html=1;rounded=0;" parent="MMdD6pfrjAhW9f9Fqrhg-54" edge="1">
          <mxGeometry width="50" height="50" relative="1" as="geometry">
            <mxPoint y="49.519999999999996" as="sourcePoint" />
            <mxPoint x="190" y="50" as="targetPoint" />
          </mxGeometry>
        </mxCell>
        <mxCell id="MMdD6pfrjAhW9f9Fqrhg-57" value="PK" style="text;html=1;align=center;verticalAlign=middle;resizable=0;points=[];autosize=1;strokeColor=none;fillColor=none;" parent="MMdD6pfrjAhW9f9Fqrhg-54" vertex="1">
          <mxGeometry y="20" width="40" height="30" as="geometry" />
        </mxCell>
        <mxCell id="MMdD6pfrjAhW9f9Fqrhg-58" value="VendorId: UUID" style="text;html=1;align=center;verticalAlign=middle;resizable=0;points=[];autosize=1;strokeColor=none;fillColor=none;" parent="MMdD6pfrjAhW9f9Fqrhg-54" vertex="1">
          <mxGeometry x="55" y="20" width="110" height="30" as="geometry" />
        </mxCell>
        <mxCell id="MMdD6pfrjAhW9f9Fqrhg-59" value="Name: TEXT" style="text;html=1;align=center;verticalAlign=middle;resizable=0;points=[];autosize=1;strokeColor=none;fillColor=none;" parent="MMdD6pfrjAhW9f9Fqrhg-54" vertex="1">
          <mxGeometry x="65" y="50" width="90" height="30" as="geometry" />
        </mxCell>
        <mxCell id="MMdD6pfrjAhW9f9Fqrhg-60" value="VdrEmail: VARCHAR(255)" style="text;html=1;align=center;verticalAlign=middle;resizable=0;points=[];autosize=1;strokeColor=none;fillColor=none;" parent="MMdD6pfrjAhW9f9Fqrhg-54" vertex="1">
          <mxGeometry x="30" y="90" width="160" height="30" as="geometry" />
        </mxCell>
        <mxCell id="MMdD6pfrjAhW9f9Fqrhg-61" value="Location: TEXT" style="text;html=1;align=center;verticalAlign=middle;resizable=0;points=[];autosize=1;strokeColor=none;fillColor=none;" parent="MMdD6pfrjAhW9f9Fqrhg-54" vertex="1">
          <mxGeometry x="55" y="70" width="110" height="30" as="geometry" />
        </mxCell>
        <mxCell id="MMdD6pfrjAhW9f9Fqrhg-66" value="VdrPhone: VARCHAR(20)" style="text;html=1;align=center;verticalAlign=middle;resizable=0;points=[];autosize=1;strokeColor=none;fillColor=none;" parent="MMdD6pfrjAhW9f9Fqrhg-54" vertex="1">
          <mxGeometry x="30" y="110" width="160" height="30" as="geometry" />
        </mxCell>
        <mxCell id="MMdD6pfrjAhW9f9Fqrhg-87" value="Order_Items" style="swimlane;whiteSpace=wrap;html=1;strokeWidth=1;perimeterSpacing=0;swimlaneLine=1;rounded=0;fillColor=default;" parent="1" vertex="1">
          <mxGeometry x="630" y="290" width="200" height="160" as="geometry" />
        </mxCell>
        <mxCell id="MMdD6pfrjAhW9f9Fqrhg-88" value="" style="endArrow=none;html=1;rounded=0;" parent="MMdD6pfrjAhW9f9Fqrhg-87" edge="1">
          <mxGeometry width="50" height="50" relative="1" as="geometry">
            <mxPoint x="35" y="160" as="sourcePoint" />
            <mxPoint x="35" y="22.5" as="targetPoint" />
          </mxGeometry>
        </mxCell>
        <mxCell id="MMdD6pfrjAhW9f9Fqrhg-89" value="" style="endArrow=none;html=1;rounded=0;" parent="MMdD6pfrjAhW9f9Fqrhg-87" edge="1">
          <mxGeometry width="50" height="50" relative="1" as="geometry">
            <mxPoint y="49.519999999999996" as="sourcePoint" />
            <mxPoint x="200" y="50" as="targetPoint" />
          </mxGeometry>
        </mxCell>
        <mxCell id="MMdD6pfrjAhW9f9Fqrhg-90" value="PK" style="text;html=1;align=center;verticalAlign=middle;whiteSpace=wrap;rounded=0;" parent="MMdD6pfrjAhW9f9Fqrhg-87" vertex="1">
          <mxGeometry y="20" width="40" height="30" as="geometry" />
        </mxCell>
        <mxCell id="MMdD6pfrjAhW9f9Fqrhg-91" value="OrderItemId: UUID" style="text;html=1;align=center;verticalAlign=middle;resizable=0;points=[];autosize=1;strokeColor=none;fillColor=none;" parent="MMdD6pfrjAhW9f9Fqrhg-87" vertex="1">
          <mxGeometry x="60" y="20" width="120" height="30" as="geometry" />
        </mxCell>
        <mxCell id="MMdD6pfrjAhW9f9Fqrhg-92" value="OrderId: UUID" style="text;html=1;align=center;verticalAlign=middle;resizable=0;points=[];autosize=1;strokeColor=none;fillColor=none;" parent="MMdD6pfrjAhW9f9Fqrhg-87" vertex="1">
          <mxGeometry x="45" y="50" width="100" height="30" as="geometry" />
        </mxCell>
        <mxCell id="MMdD6pfrjAhW9f9Fqrhg-93" value="FK" style="text;html=1;align=center;verticalAlign=middle;resizable=0;points=[];autosize=1;strokeColor=none;fillColor=none;" parent="MMdD6pfrjAhW9f9Fqrhg-87" vertex="1">
          <mxGeometry y="50" width="40" height="30" as="geometry" />
        </mxCell>
        <mxCell id="MMdD6pfrjAhW9f9Fqrhg-96" value="ItemId: UUID" style="text;html=1;align=center;verticalAlign=middle;resizable=0;points=[];autosize=1;strokeColor=none;fillColor=none;" parent="MMdD6pfrjAhW9f9Fqrhg-87" vertex="1">
          <mxGeometry x="50" y="68" width="90" height="30" as="geometry" />
        </mxCell>
        <mxCell id="MMdD6pfrjAhW9f9Fqrhg-97" value="FK" style="text;html=1;align=center;verticalAlign=middle;resizable=0;points=[];autosize=1;strokeColor=none;fillColor=none;" parent="MMdD6pfrjAhW9f9Fqrhg-87" vertex="1">
          <mxGeometry y="68" width="40" height="30" as="geometry" />
        </mxCell>
        <mxCell id="MMdD6pfrjAhW9f9Fqrhg-98" value="Quantity: INTEGER" style="text;html=1;align=center;verticalAlign=middle;resizable=0;points=[];autosize=1;strokeColor=none;fillColor=none;" parent="MMdD6pfrjAhW9f9Fqrhg-87" vertex="1">
          <mxGeometry x="35" y="90" width="130" height="30" as="geometry" />
        </mxCell>
        <mxCell id="MMdD6pfrjAhW9f9Fqrhg-106" value="&lt;font style=&quot;font-size: 9px;&quot;&gt;PriceAtTimeOfOrder: NUMERIC(10,2)&lt;/font&gt;" style="text;html=1;align=center;verticalAlign=middle;resizable=0;points=[];autosize=1;strokeColor=none;fillColor=none;" parent="MMdD6pfrjAhW9f9Fqrhg-87" vertex="1">
          <mxGeometry x="30" y="110" width="180" height="30" as="geometry" />
        </mxCell>
        <mxCell id="MMdD6pfrjAhW9f9Fqrhg-100" style="edgeStyle=orthogonalEdgeStyle;rounded=0;orthogonalLoop=1;jettySize=auto;html=1;endArrow=ERzeroToMany;endFill=0;" parent="1" source="MMdD6pfrjAhW9f9Fqrhg-41" edge="1">
          <mxGeometry relative="1" as="geometry">
            <mxPoint x="716" y="450" as="targetPoint" />
          </mxGeometry>
        </mxCell>
        <mxCell id="sOG3qAqX0GpcdZvoNYR2-1" value="VendorItem" style="swimlane;whiteSpace=wrap;html=1;strokeWidth=1;perimeterSpacing=0;swimlaneLine=1;rounded=0;fillColor=default;" vertex="1" parent="1">
          <mxGeometry x="180" y="700" width="190" height="190" as="geometry" />
        </mxCell>
        <mxCell id="sOG3qAqX0GpcdZvoNYR2-2" value="" style="endArrow=none;html=1;rounded=0;" edge="1" parent="sOG3qAqX0GpcdZvoNYR2-1">
          <mxGeometry width="50" height="50" relative="1" as="geometry">
            <mxPoint x="35" y="190" as="sourcePoint" />
            <mxPoint x="35" y="22.5" as="targetPoint" />
          </mxGeometry>
        </mxCell>
        <mxCell id="sOG3qAqX0GpcdZvoNYR2-3" value="" style="endArrow=none;html=1;rounded=0;" edge="1" parent="sOG3qAqX0GpcdZvoNYR2-1">
          <mxGeometry width="50" height="50" relative="1" as="geometry">
            <mxPoint y="49.519999999999996" as="sourcePoint" />
            <mxPoint x="190" y="50" as="targetPoint" />
          </mxGeometry>
        </mxCell>
        <mxCell id="sOG3qAqX0GpcdZvoNYR2-4" value="PK" style="text;html=1;align=center;verticalAlign=middle;resizable=0;points=[];autosize=1;strokeColor=none;fillColor=none;" vertex="1" parent="sOG3qAqX0GpcdZvoNYR2-1">
          <mxGeometry y="20" width="40" height="30" as="geometry" />
        </mxCell>
        <mxCell id="sOG3qAqX0GpcdZvoNYR2-5" value="ItemId: UUID" style="text;html=1;align=center;verticalAlign=middle;resizable=0;points=[];autosize=1;strokeColor=none;fillColor=none;" vertex="1" parent="sOG3qAqX0GpcdZvoNYR2-1">
          <mxGeometry x="65" y="20" width="90" height="30" as="geometry" />
        </mxCell>
        <mxCell id="sOG3qAqX0GpcdZvoNYR2-6" value="VendorId: UUID" style="text;html=1;align=center;verticalAlign=middle;resizable=0;points=[];autosize=1;strokeColor=none;fillColor=none;" vertex="1" parent="sOG3qAqX0GpcdZvoNYR2-1">
          <mxGeometry x="60" y="50" width="110" height="30" as="geometry" />
        </mxCell>
        <mxCell id="sOG3qAqX0GpcdZvoNYR2-7" value="VendorPrice: Float" style="text;html=1;align=center;verticalAlign=middle;resizable=0;points=[];autosize=1;strokeColor=none;fillColor=none;" vertex="1" parent="sOG3qAqX0GpcdZvoNYR2-1">
          <mxGeometry x="50" y="90" width="120" height="30" as="geometry" />
        </mxCell>
        <mxCell id="sOG3qAqX0GpcdZvoNYR2-8" value="ItemId: UUID" style="text;html=1;align=center;verticalAlign=middle;resizable=0;points=[];autosize=1;strokeColor=none;fillColor=none;" vertex="1" parent="sOG3qAqX0GpcdZvoNYR2-1">
          <mxGeometry x="65" y="70" width="90" height="30" as="geometry" />
        </mxCell>
        <mxCell id="sOG3qAqX0GpcdZvoNYR2-11" value="StockQuantity: Numeric" style="text;html=1;align=center;verticalAlign=middle;resizable=0;points=[];autosize=1;strokeColor=none;fillColor=none;" vertex="1" parent="sOG3qAqX0GpcdZvoNYR2-1">
          <mxGeometry x="35" y="110" width="150" height="30" as="geometry" />
        </mxCell>
        <mxCell id="sOG3qAqX0GpcdZvoNYR2-13" value="FK" style="text;html=1;align=center;verticalAlign=middle;resizable=0;points=[];autosize=1;strokeColor=none;fillColor=none;" vertex="1" parent="sOG3qAqX0GpcdZvoNYR2-1">
          <mxGeometry y="50" width="40" height="30" as="geometry" />
        </mxCell>
        <mxCell id="sOG3qAqX0GpcdZvoNYR2-14" value="FK" style="text;html=1;align=center;verticalAlign=middle;resizable=0;points=[];autosize=1;strokeColor=none;fillColor=none;" vertex="1" parent="sOG3qAqX0GpcdZvoNYR2-1">
          <mxGeometry y="70" width="40" height="30" as="geometry" />
        </mxCell>
        <mxCell id="sOG3qAqX0GpcdZvoNYR2-15" style="edgeStyle=orthogonalEdgeStyle;rounded=0;orthogonalLoop=1;jettySize=auto;html=1;entryX=0.405;entryY=0.004;entryDx=0;entryDy=0;endArrow=ERoneToMany;endFill=0;entryPerimeter=0;" edge="1" parent="1" target="sOG3qAqX0GpcdZvoNYR2-1">
          <mxGeometry relative="1" as="geometry">
            <mxPoint x="365" y="370" as="targetPoint" />
            <mxPoint x="220" y="570" as="sourcePoint" />
          </mxGeometry>
        </mxCell>
        <mxCell id="sOG3qAqX0GpcdZvoNYR2-16" style="edgeStyle=orthogonalEdgeStyle;rounded=0;orthogonalLoop=1;jettySize=auto;html=1;endArrow=ERoneToMany;endFill=0;exitX=0.5;exitY=1;exitDx=0;exitDy=0;" edge="1" parent="1" source="MMdD6pfrjAhW9f9Fqrhg-41" target="sOG3qAqX0GpcdZvoNYR2-1">
          <mxGeometry relative="1" as="geometry">
            <mxPoint x="267" y="711" as="targetPoint" />
            <mxPoint x="230" y="580" as="sourcePoint" />
          </mxGeometry>
        </mxCell>
      </root>
    </mxGraphModel>
  </diagram>
</mxfile>
